# xmcd
#
# Track frame offsets: 
#        160
#        20405
#        39132
#        58045
#        77727
#        95395
#        112470
#        130065
#        148675
#        171507
#
# Disc length: 2571 seconds
#
# Revision: 0
# Processed by: cddbd v1.5.2PL0 Copyright (c) Steve Scherf et al.
# Submitted via: ExactAudioCopy v0.99pb4
#
DISCID=870a090a
DTITLE=Агранович Леонид - Не в деньгах счастье
DYEAR=1996
DGENRE=Chanson
TTITLE0=Змея подколодная
TTITLE1=Дай денег
TTITLE2=Камелия
TTITLE3=Зина
TTITLE4=Музыка пахнет деньгами
TTITLE5=10 лет назад
TTITLE6=Песня души
TTITLE7=Корабли
TTITLE8=Ночь
TTITLE9=Ах. маманя
EXTD=
EXTT0=
EXTT1=
EXTT2=
EXTT3=
EXTT4=
EXTT5=
EXTT6=
EXTT7=
EXTT8=
EXTT9=
PLAYORDER=
